<svg id="Capa_1" height="33px" width="33px" viewBox="0 0 32 32" xmlns="http://www.w3.org/2000/svg">

<defs>
</defs>
<g style="stroke: none; stroke-width: 0; stroke-dasharray: none; stroke-linecap: butt; stroke-linejoin: miter; stroke-miterlimit: 10; fill: none; fill-rule: nonzero; opacity: 1;" transform="translate(36.059143968871595 36.05914396887157) scale(2.03 2.03)" >
	<path d="M16,16A7,7,0,1,0,9,9,7,7,0,0,0,16,16ZM16,4a5,5,0,1,1-5,5A5,5,0,0,1,16,4Z" id="id_101" style="fill: rgb(255, 255, 255);"></path>
    <path d="M17,18H15A11,11,0,0,0,4,29a1,1,0,0,0,1,1H27a1,1,0,0,0,1-1A11,11,0,0,0,17,18ZM6.06,28A9,9,0,0,1,15,20h2a9,9,0,0,1,8.94,8Z" id="id_102" style="fill: rgb(255, 255, 255);">
  	</path>
	</g>
</svg>